<?xml version="1.0" encoding="iso-8859-1"?>
<!-- Generator: Adobe Illustrator 19.0.0, SVG Export Plug-In . SVG Version: 6.00 Build 0)  -->
<svg version="1.1" id="Capa_1" xmlns="http://www.w3.org/2000/svg" xmlns:xlink="http://www.w3.org/1999/xlink" x="0px" y="0px"
	 viewBox="0 0 470 470" style="enable-background:new 0 0 470 470;" xml:space="preserve">
<g>
	<path d="M235,212c-12.683,0-23,10.318-23,23s10.317,23,23,23s23-10.318,23-23S247.683,212,235,212z M235,243c-4.411,0-8-3.589-8-8
		s3.589-8,8-8s8,3.589,8,8S239.411,243,235,243z"/>
	<path d="M422.494,242.524c-0.053-0.004-0.105-0.002-0.158-0.005c-4.075-0.241-7.588,2.811-7.913,6.886
		c-1.551,19.505-6.265,38.116-13.59,55.358l-113.037-65.262c0.125-1.485,0.205-2.984,0.205-4.501s-0.079-3.015-0.205-4.501
		l113.037-65.262c7.326,17.242,12.039,35.853,13.59,55.358c0.325,4.076,3.841,7.125,7.913,6.886c0.053-0.003,0.105,0,0.158-0.005
		c4.129-0.328,7.21-3.942,6.882-8.071c-3.872-48.677-25.827-93.888-61.821-127.302C331.361,58.504,284.286,40,235,40
		C127.477,40,40,127.477,40,235s87.477,195,195,195c49.286,0,96.361-18.504,132.555-52.103
		c35.994-33.415,57.95-78.625,61.821-127.302C429.704,246.466,426.623,242.852,422.494,242.524z M386.82,331.314L276.656,267.71
		c3.085-3.921,5.629-8.283,7.52-12.979l110.203,63.626C392.038,322.79,389.51,327.109,386.82,331.314z M75.532,318.409
		l110.292-63.678c1.891,4.696,4.435,9.058,7.52,12.979L83.048,331.39C80.368,327.179,77.862,322.847,75.532,318.409z M83.048,138.61
		l110.296,63.68c-3.081,3.915-5.622,8.271-7.512,12.959L75.521,151.61C77.855,147.166,80.364,142.827,83.048,138.61z M235,273
		c-20.953,0-38-17.047-38-38s17.047-38,38-38s38,17.047,38,38S255.953,273,235,273z M276.656,202.29l110.164-63.604
		c2.69,4.205,5.218,8.524,7.559,12.957l-110.203,63.626C282.285,210.573,279.741,206.211,276.656,202.29z M265.279,191.538
		c-2.451-1.713-5.05-3.226-7.779-4.511V56.433c48.724,6.203,91.915,32.245,120.685,69.918L265.279,191.538z M242.5,182.54
		c-2.452-0.349-4.953-0.54-7.5-0.54s-5.048,0.191-7.5,0.54V55.168C229.989,55.065,232.487,55,235,55c2.512,0,5.01,0.063,7.5,0.168
		V182.54z M212.5,56.404v130.623c-2.729,1.285-5.327,2.798-7.779,4.511L91.658,126.261C120.272,88.633,163.332,62.562,212.5,56.404z
		 M69.082,165.212l113.125,65.263c-0.127,1.493-0.207,3-0.207,4.525c0,1.517,0.079,3.015,0.205,4.501L69.09,304.808
		C60.02,283.331,55,259.741,55,235C55,210.267,60.017,186.684,69.082,165.212z M204.721,278.462c2.451,1.713,5.05,3.226,7.779,4.511
		v130.623c-49.168-6.159-92.228-32.23-120.842-69.857L204.721,278.462z M227.5,287.46c2.452,0.349,4.953,0.54,7.5,0.54
		s5.048-0.191,7.5-0.54v127.373c-2.49,0.105-4.988,0.168-7.5,0.168c-2.513,0-5.011-0.065-7.5-0.168V287.46z M257.5,413.567V282.973
		c2.729-1.285,5.327-2.798,7.779-4.511l112.907,65.187C349.415,381.322,306.224,407.364,257.5,413.567z"/>
	<path d="M401.17,68.83C356.784,24.444,297.771,0,235,0S113.216,24.444,68.83,68.83C24.444,113.216,0,172.229,0,235
		s24.444,121.784,68.83,166.17C113.216,445.556,172.229,470,235,470s121.784-24.444,166.17-68.83
		C445.556,356.784,470,297.771,470,235S445.556,113.216,401.17,68.83z M235,455c-121.309,0-220-98.692-220-220S113.691,15,235,15
		s220,98.692,220,220S356.309,455,235,455z"/>
</g>
<g>
</g>
<g>
</g>
<g>
</g>
<g>
</g>
<g>
</g>
<g>
</g>
<g>
</g>
<g>
</g>
<g>
</g>
<g>
</g>
<g>
</g>
<g>
</g>
<g>
</g>
<g>
</g>
<g>
</g>
</svg>
